<svg preserveAspectRatio="none" overflow="visible" style="display: block;" width="16.6667" height="16.6667" viewBox="0 0 16.6667 16.6667" fill="none" xmlns="http://www.w3.org/2000/svg">
<path id="schedule" d="M9.16667 8V5C9.16667 4.76389 9.08681 4.56597 8.92708 4.40625C8.76736 4.24653 8.56944 4.16667 8.33333 4.16667C8.09722 4.16667 7.89931 4.24653 7.73958 4.40625C7.57986 4.56597 7.5 4.76389 7.5 5V8.3125C7.5 8.42361 7.52083 8.53125 7.5625 8.63542C7.60417 8.73958 7.66667 8.83333 7.75 8.91667L10.5 11.6667C10.6528 11.8194 10.8472 11.8958 11.0833 11.8958C11.3194 11.8958 11.5139 11.8194 11.6667 11.6667C11.8194 11.5139 11.8958 11.3194 11.8958 11.0833C11.8958 10.8472 11.8194 10.6528 11.6667 10.5L9.16667 8ZM8.33333 16.6667C7.18056 16.6667 6.09722 16.4479 5.08333 16.0104C4.06944 15.5729 3.1875 14.9792 2.4375 14.2292C1.6875 13.4792 1.09375 12.5972 0.65625 11.5833C0.21875 10.5694 0 9.48611 0 8.33333C0 7.18056 0.21875 6.09722 0.65625 5.08333C1.09375 4.06944 1.6875 3.1875 2.4375 2.4375C3.1875 1.6875 4.06944 1.09375 5.08333 0.65625C6.09722 0.21875 7.18056 0 8.33333 0C9.48611 0 10.5694 0.21875 11.5833 0.65625C12.5972 1.09375 13.4792 1.6875 14.2292 2.4375C14.9792 3.1875 15.5729 4.06944 16.0104 5.08333C16.4479 6.09722 16.6667 7.18056 16.6667 8.33333C16.6667 9.48611 16.4479 10.5694 16.0104 11.5833C15.5729 12.5972 14.9792 13.4792 14.2292 14.2292C13.4792 14.9792 12.5972 15.5729 11.5833 16.0104C10.5694 16.4479 9.48611 16.6667 8.33333 16.6667ZM8.33333 15C10.1806 15 11.7535 14.3507 13.0521 13.0521C14.3507 11.7535 15 10.1806 15 8.33333C15 6.48611 14.3507 4.91319 13.0521 3.61458C11.7535 2.31597 10.1806 1.66667 8.33333 1.66667C6.48611 1.66667 4.91319 2.31597 3.61458 3.61458C2.31597 4.91319 1.66667 6.48611 1.66667 8.33333C1.66667 10.1806 2.31597 11.7535 3.61458 13.0521C4.91319 14.3507 6.48611 15 8.33333 15Z" fill="#1C1B1F"/>
</svg>
