<svg preserveAspectRatio="none" overflow="visible" style="display: block;" width="40" height="40" viewBox="0 0 40 40" fill="none" xmlns="http://www.w3.org/2000/svg">
<g id="facebook">
<rect width="40" height="40" rx="20" fill="#F5F9FF"/>
<path id="Vector" d="M20 9.38828C14.1088 9.38828 9.33329 14.1638 9.33329 20.055C9.33329 25.4022 13.2725 29.8181 18.4053 30.5893V22.8816H15.7664V20.0774H18.4053V18.2118C18.4053 15.1227 19.9104 13.767 22.4778 13.767C23.7077 13.767 24.3573 13.8576 24.6656 13.8992V16.3462H22.9141C21.824 16.3462 21.4432 17.3798 21.4432 18.5446V20.0774H24.6378L24.2048 22.8816H21.4442V30.6117C26.6506 29.9067 30.6666 25.4544 30.6666 20.055C30.6666 14.1638 25.8912 9.38828 20 9.38828Z" fill="#3551F2"/>
</g>
</svg>
